<svg xmlns="http://www.w3.org/2000/svg" viewBox="0 0 555.48 555.48"><defs><style>.cls-1{fill:#adeef4;}.cls-2{fill:#41b56b;}</style></defs><title>SVGLogo</title><g id="Layer_2" data-name="Layer 2"><g id="Layer_1-2" data-name="Layer 1"><path class="cls-1" d="M555.73,278a279.53,279.53,0,0,1-3.59,44.74l-2.38-.38L443.85,384a67.55,67.55,0,0,1-94.75-28.84L330.54,317a82.78,82.78,0,0,0-110.3-38.42l-47.39,22.78A57.86,57.86,0,0,1,93.44,269.1l-50.6-138-.45-.29A277.55,277.55,0,0,1,278,.25C431.38.25,555.73,124.6,555.73,278Z" transform="translate(-0.25 -0.25)"/><path class="cls-2" d="M549.76,322.35l2.38.38c-21.39,132.12-136,233-274.15,233C124.59,555.73.25,431.38.25,278A276.36,276.36,0,0,1,42.39,130.84l.45.29,50.6,138a57.86,57.86,0,0,0,79.41,32.24l47.39-22.78A82.78,82.78,0,0,1,330.54,317l18.56,38.2A67.55,67.55,0,0,0,443.85,384Z" transform="translate(-0.25 -0.25)"/></g></g></svg>